<?xml version="1.0" encoding="UTF-8"?>
<svg id="Layer_2" data-name="Layer 2" xmlns="http://www.w3.org/2000/svg" viewBox="0 0 210 210">
    <path class="cls-2" d="M34.5,91.67c.43,1.15,2.02,1.39,3.62,1.65,3,.34,6.04.48,9.04.9,11.61,1.2,23.02,5,33.36,11.07,3.58,2.11,7.07,4.42,10.81,6.15,2.58,1.21,5.24,2.22,7.91,3.16,8.83,3.32,18.12,5.04,27.42,3.83,3.36-.38,6.75-1.11,9.84-2.67,3.92-1.96,7.19-5.27,10.15-8.82,1.95-2.48,4.41-5.63-.5-4.59-.97.18-2.25.49-3.36.73-4.84,1.03-9.79,1.2-14.68.67-11.74-1.41-22.58-7.16-33.55-11.67-3.87-1.51-7.84-2.59-11.8-3.76-12.66-3.94-26.21-6.45-39.15-2.74-2.52.74-5.21,1.78-7.34,3.36-.95.68-2.07,1.93-1.77,2.72h0Z"/>
    <path class="cls-2" d="M186.62,56.6c-.94-.65-3.46,1.36-4.72,2.12-6.41,4.38-13.72,6.79-21.08,8.08-7.9,1.37-15.95.4-23.77-1.36-6.16-1.34-12.26-3.06-18.28-5.06-3.4-1.1-6.78-2.24-10.23-3.11-5.24-1.36-10.63-1.92-15.94-2.68-3.3-.46-6.59-.98-9.91-1.36-7.16-.83-14.37-.87-21.49.03-11.86,1.64-23.94,6.17-33,15.24-1.69,1.78-5.49,5.96-3.27,8.11,1.74,1.34,5.32.46,7.57.17,5.08-.8,10.18-1.21,15.3-1.47,8.8-.59,17.62.4,26.17,2.76,6.99,1.79,13.81,4.31,20.33,7.67,4.34,2.19,8.63,4.53,13.19,6.1,4.35,1.52,8.82,2.51,13.29,3.44,13.38,3.1,25.84,2.72,38.74-2.57,4.34-1.72,8.67-4.02,12.17-7.39,4.97-4.71,8.16-11.32,11.28-17.84.83-1.99,4.94-9.75,3.65-10.87h0Z"/>
    <path class="cls-2" d="M154.78,60.14c5.09-1.21,9.98-3.61,13.89-7.52,2.45-2.37,5.01-5.89,6.54-8.48.56-1.04,1.59-2.6,1.56-3.79,0-.14-.03-.27-.09-.39-.4-.7-1.63-.34-3.45.18-1.27.39-2.81.97-4.5,1.51-10.08,3.36-20.9,1.89-30.92-1.14-4.83-1.44-9.56-3.18-14.39-4.58-6.57-1.92-13.26-3.41-19.99-4.36-5.95-.89-11.98-1.34-17.97-.69-7.05.66-14.9,2.98-20.66,7.49-1.28.96-2.96,2.79-2.53,3.73.2.57.87.98,1.95,1.23.74.17,1.66.27,2.71.31,2.14.08,4.46-.06,6.66-.07,9.67-.02,19.4,1.5,28.56,5.09,6.73,2.62,13.12,6.14,19.9,8.57,10.52,3.73,21.81,5.52,32.69,2.94"/>
    <path class="cls-2" d="M94.57,179.44h11.39l5.21-13.93.39-.51h2.32l.97.34.58.51.39,1.7-2.9,8.33-.19,3.57h17.76l4.63-6.46h9.46l.19.17v2.21l-.19.17-.19,3.91h11.2l.19-.34v-2.89l.19-.17v-2.89l.19-.17v-2.89l.19-.17v-2.89l.19-.17v-2.89l.19-.17v-2.89l.19-.17v-2.89l.19-.17v-2.89l.19-.17v-2.89l.19-.17v-2.72l.19-.34-.19-.17h-9.65l-18.73,25.83-3.48,4.76-.58.51-.58-1.02v-2.38l1.74-6.97v-2.38l-.39-.85-1.54-1.36-.97-.51,2.51-.85,2.32-1.19,2.12-1.7,1.54-2.04.97-2.38v-2.55l-.58-1.36-2.32-2.04-1.54-.68-2.9-.68h-1.35l-.19-.17h-17.38l-11.39,29.91-.58,1.19ZM145.74,158.2l.19.17v1.53l-.19.17v2.38l-.19.17v2.21l-.19.17v2.38l-.19.17v1.19l-.19.17h-6.56l-.19-.17.19-.17v-.17l.19-.17v-.17l.39-.34v-.17l.39-.34v-.17l.19-.17v-.17l.39-.34v-.17l.39-.34v-.17l.39-.34v-.17l.19-.17v-.17l.39-.34v-.17l.39-.34v-.17l.39-.34v-.17l.19-.17v-.17l.39-.34v-.17l.39-.34v-.17l.19-.17v-.17l.39-.34v-.17l.39-.34v-.17l.39-.34v-.17l.19-.17v-.17l.39-.34v-.17l.39-.34v-.17l.19-.17v-.17l.19-.17ZM120.83,152.59l.77.68v.17l.19.17v1.87l-.19.17v.51l-.19.17v.34l-.19.17v.34l-.19.17v.17l-.19.17v.17l-.19.17v.17l-.19.17v.17l-.39.34v.17l-1.74,1.53h-.19l-.19.17h-.19l-.19.17h-.19l-.19.17h-.19l-.19.17h-.58l-.19.17h-.97l-.19.17h-1.74l-.19-.17v-.34l.19-.17v-.34l.19-.17v-.34l.19-.17v-.34l.19-.17v-.34l.19-.17v-.34l.19-.17v-.34l.19-.17v-.34l.19-.17v-.34l.19-.17v-.34l.19-.17v-.34l.19-.17v-.34l.19-.17v-.34l.19-.17v-.34l.19-.17v-.34l.19-.17v-.34l.19-.17v-.17l.19-.17v-.34l.19-.17v-.17l.19-.17h2.7l.19.17h.58l.19.17h.19l.19.17h.19Z"/>
    <path class="cls-2" d="M97.86,150.89l-.97-.85h-.19l-.39-.34h-.19l-.97-.51h-.39l-.19-.17h-.39l-.19-.17h-.58l-.19-.17h-.77l-.19-.17h-1.54l-.19-.17h-17.95v.17l-.19.17v.34l-.19.17v.34l-.19.17v.34l-.19.17v.34l-.19.17v.34l-.19.17v.34l-.19.17v.34l-.19.17v.34l-.19.17v.34l-.19.17v.34l-.19.17v.34l-.19.17v.34l-.19.17v.34l-.19.17v.34l-.19.17v.34l-.39.51v.34l-.19.17v.34l-.19.17v.34l-.19.17v.34l-.19.17v.34l-.19.17v.34l-.19.17v.34l-.19.17v.34l-.19.17v.34l-.19.17v.34l-.19.17v.34l-.19.17v.34l-.19.17v.34l-.19.17v.34l-.19.17v.34l-.19.17v.34l-.19.17v.34l-.39.51v.34l-.19.17v.34l-.19.17v.34l-.19.17v.34l-.19.17v.34l-.19.17v.34l-.19.17v.34l-.19.17v.34l-.19.17v.34l-.19.17v.34l-.19.17v.34l-.19.17v.34l-.19.17v.34l-.19.17v.34l-.19.17v.34l-.19.17v.34l-.19.17v.34l-.39.51v.34l-.19.17v.34l-.19.17v.34l-.19.17v.34l-.19.17v.34l-.19.17v.34l-.19.17v.34l-.19.17v.34l-.19.17v.34l-.19.17v.17h20.85l.19-.17h1.16l.19-.17h.77l.19-.17h.58l.19-.17h.58l.58-.34h.39l.58-.34h.39l.19-.17.58-.17.39-.34h.19l.39-.34h.19l.39-.34h.19l1.93-1.7v-.17l.58-.51v-.17l.39-.34v-.17l.19-.17v-.17l.19-.17v-.17l.19-.17v-.17l.58-.85v-.34l.19-.17v-.34l.19-.17v-.51l.19-.17v-.51l.19-.17v-2.21l-.19-.17v-.51l-.19-.17v-.34l-.39-.34-.19-.51-1.16-1.02h-.19l-.97-.68h-.19l-.19-.17h-.39l-.39-.34.19-.17h.39l.19-.17h.39l.19-.17h.19l.19-.17h.19l.19-.17h.19l.19-.17.58-.17.39-.34h.19l.39-.34h.19l.77-.68h.19l.58-.51v-.17l.77-.68v-.17l.39-.34.19-.51.39-.34v-.34l.19-.17v-.17l.39-.51v-.34l.19-.17v-.51l.19-.17v-.85l.19-.17v-1.19l-.19-.17v-.68l-.19-.17v-.34l-.19-.17v-.17l-.39-.34v-.17ZM82.41,165.51l.58.51v.17l.19.17v.34l.19.17v1.87l-.19.17v.51l-.19.17v.51l-.19.17v.34l-.19.17v.34l-.19.17v.17l-.19.17v.34l-.19.17v.17l-.19.17v.17l-.39.34v.17l-.39.34v.17l-1.54,1.36h-.19l-.39.34h-.19l-.19.17h-.39l-.19.17h-.19l-.19.17h-.77l-.19.17h-3.28l-.19-.17.19-.17v-.17l.19-.17v-.34l.19-.17v-.34l.19-.17v-.34l.19-.17v-.34l.19-.17v-.34l.19-.17v-.34l.19-.17v-.34l.19-.17v-.34l.19-.17v-.34l.19-.17v-.34l.19-.17v-.34l.19-.17v-.34l.19-.17v-.34l.19-.17v-.34l.19-.17v-.34l.19-.17v-.34l.19-.17v-.34l.19-.17v-.17l.19-.17v-.34l.19-.17v-.34l.19-.17v-.17l.19-.17h3.67l.19.17h.39l.39.34h.19ZM87.05,152.25l.39.34v.17l.19.17v.68l.19.17-.19.17v1.02l-.19.17v.51l-.19.17v.34l-.19.17v.34l-.19.17v.34l-.19.17v.17l-.19.17v.17l-.19.17v.17l-.19.17v.17l-.19.17v.17l-.39.34v.17l-1.54,1.36h-.19l-.39.34h-.19l-.19.17h-.39l-.19.17h-3.28l-.19-.17v-.34l.19-.17v-.34l.19-.17v-.34l.19-.17v-.34l.19-.17v-.34l.19-.17v-.34l.19-.17v-.17l.19-.17v-.34l.19-.17v-.34l.19-.17v-.34l.19-.17v-.34l.19-.17v-.34l.19-.17v-.34l.19-.17v-.34l.19-.17v-.34l.19-.17v-.34l.19-.17v-.34l.19-.17v-.34l.19-.17v-.34l.19-.17h2.9l.19.17h.77l.39.34h.19Z"/>
    <path class="cls-2" d="M66.58,148.34h-11.2v.17l-.19.17v.34l-.19.17v.34l-.19.17v.34l-.19.17v.34l-.19.17v.34l-.19.17v.34l-.19.17v.17l-.19.17v.34l-.19.17v.34l-.19.17v.34l-.19.17v.34l-.19.17v.34l-.19.17v.34l-.19.17v.34l-.19.17v.34l-.19.17v.34l-.19.17v.34l-.19.17v.34l-.19.17v.34l-.19.17v.34l-.19.17v.34l-.19.17v.34l-.19.17v.34l-.19.17v.34l-.19.17v.17l-.19.17v.34l-.19.17v.34l-.19.17v.34l-.19.17v.34l-.19.17v.34l-.19.17v.34l-.19.17v.34l-.19.17v.34l-.19.17v.34l-.19.17v.34l-.19.17v.34l-.19.17v.34l-.19.17v.34l-.19.17v.34l-.19.17v.34l-.19.17v.34l-.19.17v.34l-.19.17v.17l-.19.17v.34l-.19.17v.34l-.19.17v.34l-.19.17v.34l-.19.17v.34l-.19.17v.34l-.19.17v.34l-.19.17v.34l-.19.17v.34l-.19.17v.34l-.19.17v.34l-.19.17v.34l-.19.17v.34l-.19.17v.34l-.19.17v.34l-.19.17v.34l-.19.17v.34l-.19.17v.17l-.19.17v.34h11.2l.19-.17v-.34l.19-.17v-.34l.19-.17v-.34l.19-.17v-.34l.19-.17v-.34l.19-.17v-.34l.19-.17v-.34l.19-.17v-.34l.19-.17v-.34l.19-.17v-.34l.19-.17v-.34l.19-.17v-.34l.19-.17v-.34l.19-.17v-.34l.19-.17v-.34l.19-.17v-.17l.19-.17v-.34l.19-.17v-.34l.19-.17v-.34l.19-.17v-.34l.19-.17v-.34l.19-.17v-.34l.19-.17v-.34l.19-.17v-.34l.19-.17v-.34l.19-.17v-.34l.19-.17v-.34l.19-.17v-.34l.19-.17v-.34l.19-.17v-.34l.19-.17v-.34l.19-.17v-.34l.19-.17v-.34l.19-.17v-.17l.19-.17v-.34l.19-.17v-.34l.19-.17v-.34l.19-.17v-.34l.19-.17v-.34l.19-.17v-.34l.19-.17v-.34l.19-.17v-.34l.19-.17v-.34l.19-.17v-.34l.19-.17v-.34l.19-.17v-.34l.19-.17v-.34l.19-.17v-.34l.19-.17v-.34l.19-.17v-.34l.19-.17v-.17l.19-.17v-.34l.19-.17v-.34l.19-.17v-.34l.19-.17v-.34l.19-.17v-.34l.19-.17v-.34l.19-.17v-.34l.19-.17v-.34l.19-.17v-.34l.19-.17v-.34l.19-.17v-.34Z"/>
    <path class="cls-2" d="M27.58,148.34v.17l-.19.17v.34l-.19.17v.34l-.19.17v.34l-.19.17v.34l-.19.17v.34l-.19.17v.34l-.19.17v.34l-.19.17v.34l-.19.17v.34l-.19.17v.34l-.19.17v.34l-.19.17v.34l-.19.17v.34l-.19.17v.34l-.39.51v.34l-.19.17v.34l-.19.17v.34l-.19.17v.34l-.19.17v.34l-.19.17v.34l-.19.17v.34l-.19.17v.34l-.19.17v.34l-.19.17v.34l-.19.17v.34l-.19.17v.34l-.19.17v.34l-.19.17v.34l-.19.17v.34l-.19.17v.34l-.39.51v.34l-.19.17v.34l-.19.17v.34l-.19.17v.34l-.19.17v.34l-.19.17v.34l-.19.17v.34l-.19.17v.34l-.19.17v.34l-.19.17v.34l-.19.17v.34l-.19.17v.34l-.19.17v.34l-.19.17v.34l-.19.17v.34l-.19.17v.34l-.19.17v.34l-.39.51v.34l-.19.17v.34l-.19.17v.34l-.19.17v.34l-.19.17v.34l-.19.17v.34l-.19.17v.34l-.19.17v.34l-.19.17v.34l-.19.17v.34l-.19.17v.34l-.19.17v.17h25.68v-.34l.39-.51v-.34l.19-.17v-.34l.19-.17v-.34l.19-.17v-.34l.19-.17v-.34l.19-.17v-.51h-14.09l-.19-.17.19-.17v-.34l.39-.51v-.34l.19-.17v-.34l.19-.17v-.34l.19-.17v-.34l.19-.17v-.34l.19-.17v-.34l.19-.17v-.34l.19-.17v-.34l.19-.17v-.34l.19-.17v-.34l.19-.17v-.34l.19-.17v-.34l.19-.17v-.34l.19-.17v-.34l.19-.17v-.34l.19-.17v-.34l.19-.17v-.34l.39-.51v-.34l.19-.17v-.34l.19-.17v-.34l.19-.17v-.34l.19-.17v-.34l.19-.17v-.34l.19-.17v-.34l.19-.17v-.34l.19-.17v-.34l.19-.17v-.34l.19-.17v-.34l.19-.17v-.34l.19-.17v-.34l.19-.17v-.34l.19-.17v-.34l.19-.17v-.34l.39-.51v-.34l.19-.17v-.34l.19-.17v-.34l.19-.17v-.34l.19-.17v-.34l.19-.17v-.34l.19-.17v-.34l.19-.17v-.34l.19-.17v-.34l.19-.17v-.34l.19-.17v-.34l.19-.17v-.34l.19-.17v-.34l.19-.17v-.34l.19-.17v-.34l.19-.17v-.34l.19-.17v-.34h-11.2Z"/>
    <path class="cls-2" d="M193.42,151.23l-1.93-1.7-2.32-1.02-1.16-.17-.19-.17h-.77l-.19-.17-3.86-.17-.19.17h-2.32l-.19.17h-1.16l-.19.17h-.77l-.19.17h-.58l-.19.17h-.39l-.19.17-1.54.34-1.54.68-.39.34-.58.17-1.35,1.02h-.19l-1.16,1.02v.17l-1.35,1.36-.19.51-.39.34-.58,1.02v.34l-.39.51v.34l-.19.17v.34l-.39.68v.68l-.19.17v1.02l-.19.17v1.02l1.16.17.19.17h.58l.19.17h.58l.19.17h.58l.19.17h.58l.19.17h.58l.19.17h.58l.19.17v-.85l.19-.17v-1.36l.19-.17.19-1.7.19-.17.19-.85.39-.51v-.34l.77-1.36.97-1.02v-.17l1.16-1.02h.19l.58-.51,1.74-.68h.58l.19-.17h2.51l.19.17.77.17.58.51.19.68.19.17v1.02l-.19.17v.68l-.19.17-.19,1.02-.77,1.36-.97,1.02v.17l-1.35,1.19v.17l-3.09,2.55h-.19l-1.16,1.02h-.19l-1.74,1.36h-.19l-2.9,2.04-.77.34-.58.51-.77.34-1.35,1.02-.77.34-.58.51h-.19l-.58.51h-.19l-.58.51h-.19l-.58.51h-.19l-.58.51h-.19l-.58.51h-.19l-.77.68h-.19l-1.35,1.02-.19.68-.19.17v.34l-.19.17v.34l-.19.17v.34l-.19.17v.34l-.19.17v.34l-.19.17v.34l-.39.51-.19.68h27.22l.19-.68.19-.17v-.34l.39-.51v-.34l.19-.17v-.34l.19-.17v-.34l.19-.17v-.34l.19-.17v-.34l.19-.17v-.34l.19-.17v-.34l.19-.17v-.34l.19-.17v-.34l.19-.17v-.34l.19-.17.39-1.36h-13.13l-.19-.17,1.54-1.02.58-.17,2.12-1.36.58-.17.97-.68,1.54-.68.39-.34h.19l.97-.68.58-.17.39-.34.77-.34.58-.51.77-.34,1.54-1.19h.19l1.35-1.19h.19l2.12-2.04v-.17l.97-1.02.77-1.36v-.34l.39-.68v-.51l.19-.17v-2.38l-.19-.17v-.51l-.77-1.36Z"/>
      <rect width="210" height="210"  fill="none" />
</svg>
