<?xml version="1.0" encoding="UTF-8"?>
<svg xmlns="http://www.w3.org/2000/svg" viewBox="0 0 40 40">
  <rect width="40" height="40" fill="none" />
  <path
    fill="#4f2683"
    d="M2.74 24.13c.1.28.49.34.88.4.73.08 1.47.12 2.2.22 2.82.29 5.59 1.21 8.1 2.69.87.51 1.72 1.07 2.63 1.49.63.29 1.27.54 1.92.77 2.14.81 4.4 1.22 6.66.93.82-.09 1.64-.27 2.39-.65.95-.47 1.75-1.28 2.46-2.14.47-.6 1.07-1.37-.12-1.12-.24.04-.55.12-.82.18-1.18.25-2.38.29-3.57.16-2.85-.34-5.48-1.74-8.15-2.83-.94-.37-1.9-.63-2.87-.91-3.08-.96-6.37-1.57-9.51-.67-.61.18-1.27.43-1.78.82-.23.17-.5.47-.43.66Z"
  />
  <path
    fill="#4f2683"
    d="M39.69 15.61c-.23-.16-.84.33-1.15.52-1.56 1.06-3.33 1.65-5.12 1.96-1.92.33-3.87.1-5.77-.33-1.5-.33-2.98-.74-4.44-1.23-.82-.27-1.65-.54-2.49-.76-1.27-.33-2.58-.47-3.87-.65-.8-.11-1.6-.24-2.41-.33-1.74-.2-3.49-.21-5.22 0-2.88.4-5.82 1.5-8.02 3.7-.41.43-1.33 1.45-.79 1.97.42.32 1.29.11 1.84.04 1.23-.19 2.47-.29 3.72-.36 2.14-.14 4.28.1 6.36.67 1.7.44 3.35 1.05 4.94 1.86 1.06.53 2.1 1.1 3.2 1.48 1.06.37 2.14.61 3.23.83 3.25.75 6.28.66 9.41-.62 1.05-.42 2.11-.98 2.95-1.79 1.21-1.14 1.98-2.75 2.74-4.33.2-.48 1.2-2.37.89-2.64Z"
  />
  <path
    fill="#4f2683"
    d="M31.95 16.47c1.24-.29 2.42-.88 3.37-1.83.6-.57 1.22-1.43 1.59-2.06.14-.25.39-.63.38-.92 0-.03 0-.07-.02-.09-.1-.17-.4-.08-.84.04-.31.1-.68.23-1.09.37-2.45.82-5.08.46-7.51-.28-1.17-.35-2.32-.77-3.5-1.11-1.6-.47-3.22-.83-4.85-1.06-1.44-.22-2.91-.33-4.36-.17-1.71.16-3.62.72-5.02 1.82-.31.23-.72.68-.61.91.05.14.21.24.47.3.18.04.4.06.66.07.52.02 1.08-.02 1.62-.02 2.35 0 4.71.36 6.94 1.24 1.63.64 3.19 1.49 4.83 2.08 2.56.91 5.3 1.34 7.94.72Z"
  />
</svg>
